<svg width="164" height="41" viewBox="0 0 164 41" fill="none" xmlns="http://www.w3.org/2000/svg">
<path d="M20.6874 33.0423H20.7038C20.9439 34.0684 20.551 34.5815 19.5249 34.5815H15.5788C14.8365 34.5815 14.3999 34.2103 14.2689 33.468L13.6958 31.0284H7.49016L6.94982 33.468C6.81883 34.2103 6.3822 34.5815 5.63992 34.5815H1.92307C0.864235 34.5815 0.471264 34.0684 0.74416 33.0423L6.14751 13.3283C6.36582 12.5205 6.87341 12.1166 7.67027 12.1166H13.7122C14.5527 12.1166 15.0658 12.5205 15.2513 13.3283L20.6874 33.0423ZM8.73456 25.625H12.4842L10.7813 18.1422H10.4047L8.73456 25.625Z" fill="#FBF5E5"/>
<path d="M31.707 34.9908V34.9253C28.9343 34.9253 26.713 34.1557 25.0428 32.6166C23.3727 31.0775 22.5377 29.0471 22.5377 26.5256V20.0743C22.5377 17.5527 23.3727 15.5224 25.0428 13.9833C26.713 12.4441 28.9343 11.6746 31.707 11.6746C34.4687 11.6746 36.6737 12.3732 38.322 13.7704C39.9594 15.1567 40.778 17.1543 40.778 19.7632C40.778 20.6146 40.3796 21.0404 39.5828 21.0404H36.0296C35.3638 21.0404 34.9381 20.6365 34.7525 19.8287C34.5123 18.0822 33.4972 17.2089 31.707 17.2089C30.7355 17.2089 29.9659 17.4872 29.3983 18.044C28.8306 18.6007 28.5468 19.3211 28.5468 20.2053V26.4437C28.5468 27.3388 28.8306 28.0647 29.3983 28.6214C29.9659 29.1781 30.7355 29.4565 31.707 29.4565C33.519 29.4565 34.5396 28.5832 34.7689 26.8367C34.9544 26.0289 35.3801 25.625 36.046 25.625H39.5991C40.396 25.625 40.789 26.0835 40.778 27.0004C40.778 29.5765 39.9539 31.5523 38.3056 32.9277C36.6464 34.3031 34.4468 34.9908 31.707 34.9908Z" fill="#FBF5E5"/>
<path d="M62.6043 33.0423H62.6207C62.8608 34.0684 62.4678 34.5815 61.4417 34.5815H57.4957C56.7534 34.5815 56.3168 34.2103 56.1858 33.468L55.6127 31.0284H49.407L48.8667 33.468C48.7357 34.2103 48.2991 34.5815 47.5568 34.5815H43.8399C42.7811 34.5815 42.3881 34.0684 42.661 33.0423L48.0644 13.3283C48.2827 12.5205 48.7903 12.1166 49.5871 12.1166H55.6291C56.4696 12.1166 56.9826 12.5205 57.1682 13.3283L62.6043 33.0423ZM50.6514 25.625H54.401L52.6981 18.1422H52.3215L50.6514 25.625Z" fill="#FBF5E5"/>
<path d="M74.6881 12.1166C77.4389 12.1166 79.6494 12.9026 81.3195 14.4745C82.9896 16.0463 83.8247 18.1149 83.8247 20.6801V26.0507C83.8247 28.616 82.9896 30.679 81.3195 32.24C79.6385 33.801 77.428 34.5815 74.6881 34.5815H67.2053C66.2665 34.5815 65.7972 34.1121 65.7972 33.1733V13.5248C65.7972 12.586 66.2665 12.1166 67.2053 12.1166H74.6881ZM77.7991 25.9034V20.7947C77.7991 19.8123 77.5099 19.0428 76.9313 18.486C76.3528 17.9293 75.5396 17.651 74.4916 17.651H71.8391V29.0471H74.4916C75.5396 29.0471 76.3528 28.7688 76.9313 28.2121C77.5099 27.6554 77.7991 26.8858 77.7991 25.9034Z" fill="#FBF5E5"/>
<path d="M101.197 17.6182H93.7144V20.5655H99.8874C100.804 20.5655 101.263 21.024 101.263 21.9409V24.5607C101.263 25.4776 100.804 25.9361 99.8874 25.9361H93.7144V29.0799H101.197C102.136 29.0799 102.605 29.5493 102.605 30.488V33.2061C102.605 34.123 102.136 34.5815 101.197 34.5815H89.0807C88.1419 34.5815 87.6725 34.123 87.6725 33.2061V13.492C87.6725 12.5751 88.1419 12.1166 89.0807 12.1166H101.197C102.136 12.1166 102.605 12.5751 102.605 13.492V16.2101C102.605 17.1488 102.136 17.6182 101.197 17.6182Z" fill="#FBF5E5"/>
<path d="M136.008 34.5815C135.069 34.5815 134.6 34.1121 134.6 33.1733V13.5248C134.6 12.586 136.625 10.2173 137.563 10.2173C138.502 10.2173 140.642 12.586 140.642 13.5248V33.1733C140.642 34.1121 140.172 34.5815 139.234 34.5815H136.008Z" fill="#FBF5E5"/>
<path d="M145.554 34.5815L145.521 34.6306C144.986 34.6306 144.637 34.4723 144.473 34.1557C144.309 33.8501 144.375 33.408 144.67 32.8295L149.893 23.611L144.359 13.9178C144.064 13.3829 144.009 12.9517 144.195 12.6242C144.369 12.2968 144.741 12.133 145.308 12.133H149.582C150.346 12.133 150.892 12.4769 151.219 13.1646L153.692 17.9948H154.068L156.557 13.1646C156.906 12.4769 157.452 12.133 158.194 12.133H161.878C162.424 12.133 162.779 12.2858 162.943 12.5915C163.107 12.8971 163.041 13.3283 162.746 13.885L157.523 23.1198L163.09 32.7967C163.363 33.3316 163.412 33.7628 163.237 34.0903C163.063 34.4177 162.703 34.5815 162.157 34.5815H157.883C157.119 34.5815 156.573 34.2376 156.246 33.5499L153.773 28.7197H153.364L150.908 33.5499C150.548 34.2376 150.002 34.5815 149.271 34.5815H145.554Z" fill="#FBF5E5"/>
<path d="M107.698 13.7882V32.8443C107.698 33.659 108.358 34.3195 109.173 34.3195H113.389C113.919 34.3195 114.409 34.6043 114.671 35.0654L116.785 38.7829C117.346 39.7691 118.764 39.7796 119.339 38.8017L121.548 35.0467C121.813 34.5961 122.297 34.3195 122.819 34.3195H127.705C128.52 34.3195 129.18 33.659 129.18 32.8443V13.7882C129.18 12.9736 128.52 12.3131 127.705 12.3131H122.793C122.285 12.3131 121.812 12.5751 121.542 13.0064L119.318 16.5651C118.735 17.4978 117.373 17.4875 116.805 16.5461L114.678 13.0254C114.41 12.5833 113.931 12.3131 113.415 12.3131H109.173C108.358 12.3131 107.698 12.9736 107.698 13.7882Z" fill="#FBF5E5"/>
<path d="M136.731 2.1589C136.952 1.47937 137.913 1.47937 138.134 2.1589L138.531 3.38237C138.63 3.68626 138.913 3.89202 139.233 3.89202H140.519C141.234 3.89202 141.531 4.80631 140.953 5.22629L139.912 5.98243C139.654 6.17025 139.545 6.50317 139.644 6.80706L140.042 8.03053C140.262 8.71006 139.485 9.27513 138.907 8.85516L137.866 8.09901C137.607 7.91119 137.257 7.91119 136.999 8.09901L135.958 8.85516C135.38 9.27513 134.602 8.71006 134.823 8.03053L135.221 6.80706C135.319 6.50317 135.211 6.17025 134.953 5.98243L133.912 5.22629C133.334 4.80631 133.631 3.89202 134.345 3.89202H135.632C135.951 3.89202 136.235 3.68626 136.333 3.38237L136.731 2.1589Z" fill="#FBF5E5"/>
</svg>
