<svg width="31" height="31" viewBox="0 0 31 31" fill="none" xmlns="http://www.w3.org/2000/svg">
  <path 
    d="M25.8333 15.5V23.125C25.8333 25.0106 25.8333 25.9534 25.2475 26.5392C24.6617 27.125 23.7189 27.125 21.8333 27.125H8.39582C8.18303 27.125 8.07664 27.125 7.98678 27.1196C6.47155 27.0286 5.26307 25.8201 5.17205 24.3049C5.16666 24.215 5.16666 24.1086 5.16666 23.8958C5.16666 23.683 5.16666 23.5766 5.17205 23.4868C5.26307 21.9716 6.47155 20.7631 7.98678 20.6721C8.07664 20.6667 8.18303 20.6667 8.39582 20.6667H21.8333C23.7189 20.6667 24.6617 20.6667 25.2475 20.0809C25.8333 19.4951 25.8333 18.5523 25.8333 16.6667V7.875C25.8333 5.98938 25.8333 5.04657 25.2475 4.46079C24.6617 3.875 23.7189 3.875 21.8333 3.875H9.16665C7.28104 3.875 6.33823 3.875 5.75244 4.46079C5.16666 5.04657 5.16666 5.98938 5.16666 7.875V23.8958"
    stroke="currentColor"
    stroke-width="2"
  />
  <path 
    d="M11.625 10.3334L19.375 10.3334"
    stroke="currentColor"
    stroke-width="2"
    stroke-linecap="round"
  />
</svg>
