<svg width="31" height="31" viewBox="0 0 31 31" fill="none" xmlns="http://www.w3.org/2000/svg">
  <path 
    d="M6.45834 16.4812C6.45834 14.7274 6.45834 13.8506 6.81286 13.0798C7.16737 12.309 7.83315 11.7383 9.16471 10.597L10.4564 9.48982C12.8632 7.42686 14.0666 6.39539 15.5 6.39539C16.9335 6.39539 18.1369 7.42686 20.5436 9.48982L21.8353 10.597C23.1669 11.7383 23.8327 12.309 24.1872 13.0798C24.5417 13.8506 24.5417 14.7274 24.5417 16.4812V21.9584C24.5417 24.394 24.5417 25.6118 23.785 26.3684C23.0284 27.125 21.8106 27.125 19.375 27.125H11.625C9.18942 27.125 7.97163 27.125 7.21498 26.3684C6.45834 25.6118 6.45834 24.394 6.45834 21.9584V16.4812Z"
    stroke="currentColor"
    stroke-width="2"
  />
  <path 
    d="M18.7292 27.125V20.375C18.7292 19.8227 18.2815 19.375 17.7292 19.375H13.2708C12.7186 19.375 12.2708 19.8227 12.2708 20.375V27.125"
    stroke="currentColor"
    stroke-width="2"
    stroke-linecap="round"
    stroke-linejoin="round"
  />
</svg>
