<svg width="31" height="31" viewBox="0 0 31 31" fill="none" xmlns="http://www.w3.org/2000/svg">
<path d="M11.6666 6.24996H9.99996C8.23219 6.24996 7.34831 6.24996 6.79913 6.79913C6.24996 7.34831 6.24996 8.23219 6.24996 9.99996V11.6666" stroke="#1F0741" stroke-width="2.5" stroke-linecap="round"/>
<path d="M11.6666 25.75H9.99996C8.23219 25.75 7.34831 25.75 6.79913 25.2009C6.24996 24.6517 6.24996 23.7678 6.24996 22V20.3334" stroke="#1F0741" stroke-width="2.5" stroke-linecap="round"/>
<path d="M20.3334 6.24996H22C23.7678 6.24996 24.6517 6.24996 25.2009 6.79913C25.75 7.34831 25.75 8.23219 25.75 9.99996V11.6666" stroke="#1F0741" stroke-width="2.5" stroke-linecap="round"/>
<path d="M20.3334 25.75H22C23.7678 25.75 24.6517 25.75 25.2009 25.2009C25.75 24.6517 25.75 23.7678 25.75 22V20.3334" stroke="#1F0741" stroke-width="2.5" stroke-linecap="round"/>
</svg>
