<svg xmlns="http://www.w3.org/2000/svg" width="31" height="31" viewBox="0 0 31 31" fill="none">
  <path 
    d="M18.0833 14.2084H10.3333M12.9167 19.375H10.3333M20.6667 9.04171H10.3333M25.8333 8.78337V22.2167C25.8333 24.3869 25.8333 25.472 25.411 26.3009C25.0395 27.03 24.4467 27.6228 23.7175 27.9944C22.8886 28.4167 21.8035 28.4167 19.6333 28.4167H11.3667C9.19645 28.4167 8.11135 28.4167 7.28244 27.9944C6.55332 27.6228 5.96052 27.03 5.58901 26.3009C5.16666 25.472 5.16666 24.3869 5.16666 22.2167V8.78337C5.16666 6.61317 5.16666 5.52807 5.58901 4.69916C5.96052 3.97003 6.55332 3.37723 7.28244 3.00572C8.11135 2.58337 9.19645 2.58337 11.3667 2.58337H19.6333C21.8035 2.58337 22.8886 2.58337 23.7175 3.00572C24.4467 3.37723 25.0395 3.97003 25.411 4.69916C25.8333 5.52807 25.8333 6.61317 25.8333 8.78337Z"
    stroke="currentColor"
    stroke-width="2"
    stroke-linecap="round"
    stroke-linejoin="round"
  />
</svg>
