<svg width="31" height="31" viewBox="0 0 31 31" fill="none" xmlns="http://www.w3.org/2000/svg">
<path d="M14.375 4.25L17.75 7.625M17.75 7.625L14.375 11M17.75 7.625H9.65C7.75982 7.625 6.81473 7.625 6.09278 7.99285C5.45774 8.31643 4.94143 8.83274 4.61785 9.46778C4.25 10.1897 4.25 11.1348 4.25 13.025V19.4375C4.25 19.96 4.25 20.2212 4.27887 20.4405C4.47826 21.955 5.67 23.1467 7.18447 23.3461C7.40379 23.375 7.66503 23.375 8.1875 23.375M13.25 23.375H21.35C23.2402 23.375 24.1853 23.375 24.9072 23.0071C25.5423 22.6836 26.0586 22.1673 26.3821 21.5322C26.75 20.8103 26.75 19.8652 26.75 17.975V11.5625C26.75 11.04 26.75 10.7788 26.7211 10.5595C26.5217 9.045 25.33 7.85326 23.8155 7.65387C23.5962 7.625 23.335 7.625 22.8125 7.625M13.25 23.375L16.625 26.75M13.25 23.375L16.625 20" stroke="#1F0741" stroke-width="2" stroke-linecap="round" stroke-linejoin="round"/>
</svg>
