<svg xmlns="http://www.w3.org/2000/svg" width="31" height="31" viewBox="0 0 31 31" fill="none">
  <path 
    d="M27.125 15.5L11.625 15.5M27.125 7.75L11.625 7.75M27.125 23.25L11.625 23.25M6.45833 15.5C6.45833 16.2134 5.88003 16.7917 5.16667 16.7917C4.4533 16.7917 3.875 16.2134 3.875 15.5C3.875 14.7867 4.4533 14.2084 5.16667 14.2084C5.88003 14.2084 6.45833 14.7867 6.45833 15.5ZM6.45833 7.75C6.45833 8.46341 5.88003 9.04171 5.16667 9.04171C4.4533 9.04171 3.875 8.46341 3.875 7.75C3.875 7.03667 4.4533 6.45837 5.16667 6.45837C5.88003 6.45837 6.45833 7.03667 6.45833 7.75ZM6.45833 23.25C6.45833 23.9634 5.88003 24.5417 5.16667 24.5417C4.4533 24.5417 3.875 23.9634 3.875 23.25C3.875 22.5367 4.4533 21.9584 5.16667 21.9584C5.88003 21.9584 6.45833 22.5367 6.45833 23.25Z"
    stroke="currentColor"
    stroke-width="2.58333"
    stroke-linecap="round"
    stroke-linejoin="round"
  />
</svg>
